Complete name               : Perfect.Blue.1997.BluRay.1080p.DTS-HD.MA.5.1.AVC.REMUX-FraMeSToR.mkv
Format                      : Matroska
Format version              : Version 4
File size                   : 19.1 GiB
Duration                    : 1 h 21 min
Overall bit rate mode       : Variable
Overall bit rate            : 33.5 Mb/s
Frame rate                  : 23.976 FPS
Movie name                  : Perfect Blue (1997)
Encoded date                : 2020-03-07 09:25:34 UTC
Writing application         : mkvmerge v43.0.0 ('The Quartermaster') 64-bit
Writing library             : libebml v1.3.10 + libmatroska v1.5.2
IMDB                        : tt0156887
TMDB                        : movie/10494

Video
ID                          : 1
Format                      : AVC
Format/Info                 : Advanced Video Codec
Format profile              : High@L4.1
Format settings             : CABAC / 3 Ref Frames
Format settings, CABAC      : Yes
Format settings, Reference  : 3 frames
Codec ID                    : V_MPEG4/ISO/AVC
Duration                    : 1 h 21 min
Bit rate mode               : Variable
Bit rate                    : 31.0 Mb/s
Width                       : 1 920 pixels
Height                      : 1 080 pixels
Display aspect ratio        : 16:9
Frame rate mode             : Constant
Frame rate                  : 23.976 (24000/1001) FPS
Color space                 : YUV
Chroma subsampling          : 4:2:0
Bit depth                   : 8 bits
Scan type                   : Progressive
Bits/(Pixel*Frame)          : 0.624
Stream size                 : 17.6 GiB (92%)
Writing library             : x264 core 146 r2538 121396c
Encoding settings           : cabac=1 / ref=4 / deblock=1:-1:-1 / analyse=0x3:0x133 / me=umh / subme=10 / psy=1 / psy_rd=1.00:0.15 / mixed_ref=1 / me_range=24 / chroma_me=1 / trellis=2 / 8x8dct=1 / cqm=0 / deadzone=21,11 / fast_pskip=1 / chroma_qp_offset=-3 / threads=6 / lookahead_threads=1 / sliced_threads=0 / slices=4 / nr=0 / decimate=1 / interlaced=0 / bluray_compat=1 / constrained_intra=0 / bframes=3 / b_pyramid=1 / b_adapt=2 / b_bias=0 / direct=3 / weightb=1 / open_gop=1 / weightp=1 / keyint=24 / keyint_min=1 / scenecut=40 / intra_refresh=0 / rc_lookahead=24 / rc=2pass / mbtree=1 / bitrate=31000 / ratetol=1.0 / qcomp=0.60 / qpmin=0 / qpmax=69 / qpstep=4 / cplxblur=20.0 / qblur=0.5 / vbv_maxrate=31000 / vbv_bufsize=30000 / nal_hrd=vbr / filler=0 / ip_ratio=1.40 / aq=1:1.00
Default                     : Yes
Forced                      : No
Color range                 : Limited
Color primaries             : BT.709
Transfer characteristics    : BT.709
Matrix coefficients         : BT.709

Audio #1
ID                          : 2
Format                      : DTS XLL
Format/Info                 : Digital Theater Systems
Commercial name             : DTS-HD Master Audio
Codec ID                    : A_DTS
Duration                    : 1 h 21 min
Bit rate mode               : Variable
Bit rate                    : 2 073 kb/s
Channel(s)                  : 6 channels
Channel layout              : C L R Ls Rs LFE
Sampling rate               : 48.0 kHz
Frame rate                  : 93.750 FPS (512 SPF)
Bit depth                   : 16 bits
Compression mode            : Lossless
Stream size                 : 1.18 GiB (6%)
Title                       : DTS-HD MA 5.1
Language                    : Japanese
Default                     : Yes
Forced                      : No

Audio #2
ID                          : 3
Format                      : AC-3
Format/Info                 : Audio Coding 3
Commercial name             : Dolby Digital
Codec ID                    : A_AC3
Duration                    : 1 h 21 min
Bit rate mode               : Constant
Bit rate                    : 448 kb/s
Channel(s)                  : 6 channels
Channel layout              : L R C LFE Ls Rs
Sampling rate               : 48.0 kHz
Frame rate                  : 31.250 FPS (1536 SPF)
Compression mode            : Lossy
Stream size                 : 262 MiB (1%)
Title                       : AC-3 5.1
Language                    : English
Service kind                : Complete Main
Default                     : No
Forced                      : No

Text #1
ID                          : 4
Format                      : PGS
Codec ID                    : S_HDMV/PGS
Codec ID/Info               : Picture based subtitle format used on BDs/HD-DVDs
Duration                    : 1 h 21 min
Bit rate                    : 30.2 kb/s
Frame rate                  : 0.378 FPS
Count of elements           : 1840
Stream size                 : 17.5 MiB (0%)
Title                       : English
Language                    : English
Default                     : Yes
Forced                      : No

Text #2
ID                          : 5
Format                      : PGS
Codec ID                    : S_HDMV/PGS
Codec ID/Info               : Picture based subtitle format used on BDs/HD-DVDs
Duration                    : 1 h 21 min
Bit rate                    : 1 853 b/s
Frame rate                  : 0.017 FPS
Count of elements           : 84
Stream size                 : 1.07 MiB (0%)
Title                       : English (Foreign)
Language                    : English
Default                     : No
Forced                      : Yes

Text #3
ID                          : 6
Format                      : PGS
Codec ID                    : S_HDMV/PGS
Codec ID/Info               : Picture based subtitle format used on BDs/HD-DVDs
Duration                    : 1 h 21 min
Bit rate                    : 44.3 kb/s
Frame rate                  : 0.614 FPS
Count of elements           : 2988
Stream size                 : 25.7 MiB (0%)
Title                       : English (SDH)
Language                    : English
Default                     : No
Forced                      : No

Text #4
ID                          : 7
Format                      : PGS
Codec ID                    : S_HDMV/PGS
Codec ID/Info               : Picture based subtitle format used on BDs/HD-DVDs
Duration                    : 1 h 21 min
Bit rate                    : 41.5 kb/s
Frame rate                  : 0.397 FPS
Count of elements           : 1938
Stream size                 : 24.1 MiB (0%)
Title                       : Chinese (Traditional)
Language                    : Chinese
Default                     : No
Forced                      : No

Text #5
ID                          : 8
Format                      : PGS
Codec ID                    : S_HDMV/PGS
Codec ID/Info               : Picture based subtitle format used on BDs/HD-DVDs
Duration                    : 1 h 21 min
Bit rate                    : 29.6 kb/s
Frame rate                  : 0.352 FPS
Count of elements           : 1716
Stream size                 : 17.2 MiB (0%)
Title                       : German
Language                    : German
Default                     : No
Forced                      : No

Menu
00:00:00.000                : en:Mima's Feelings
00:04:49.414                : en:Mima's Last Performance
00:08:58.830                : en:Mima's Room
00:13:20.466                : en:Who Are You?
00:22:29.473                : en:Proving Herself
00:27:48.458                : en:Innocence Lost
00:36:01.242                : en:Tarnished Reputation
00:40:54.577                : en:Serves Me Right
00:44:23.703                : en:The Real Mimarin
00:49:20.791                : en:Illusions Become Reality
00:54:27.473                : en:What Was Yesterday?
00:57:33.867                : en:That's A Wrap!
01:08:05.206                : en:Back To Mima's Room
01:16:32.379                : en:Perfect Blue Day
